squats_2_grf
version=1
nRows=15
nColumns=19
inDegrees=no
endheader
time	ground_force_left_vx	ground_force_left_vy	ground_force_left_vz	ground_force_left_px	ground_force_left_py	ground_force_left_pz	ground_force_left_mx	ground_force_left_my	ground_force_left_mz	ground_force_right_vx	ground_force_right_vy	ground_force_right_vz	ground_force_right_px	ground_force_right_py	ground_force_right_pz	ground_force_right_mx	ground_force_right_my	ground_force_right_mz
      2.16700000	     18.84586917	    409.88609261	     22.57421542	     -2.31587087	      0.01017864	      2.32150645	      0.00465271	     -2.37296390	      0.00593387	     11.32850169	    465.38398835	    -34.62171857	     -2.31288129	      0.01047287	      2.68650442	     -0.00638375	      5.17246936	      0.01545601
      2.16800000	     18.82631371	    409.87861718	     22.64600421	     -2.31581475	      0.01017868	      2.32147878	      0.00462493	     -2.35879907	      0.00589845	     11.38402213	    465.17959149	    -34.69558188	     -2.31285576	      0.01047285	      2.68652077	     -0.00636634	      5.15836594	      0.01541387
      2.16900000	     18.79576359	    409.87317893	     22.71451426	     -2.31575541	      0.01017873	      2.32145149	      0.00459728	     -2.34469434	      0.00586318	     11.43820478	    464.96352867	    -34.77100102	     -2.31282998	      0.01047283	      2.68653822	     -0.00634863	      5.14401383	      0.01537098
      2.17000000	     18.75396560	    409.86971299	     22.77970086	     -2.31569299	      0.01017878	      2.32142462	      0.00456974	     -2.33064987	      0.00582806	     11.49028986	    464.73510435	    -34.84789303	     -2.31280381	      0.01047281	      2.68655676	     -0.00633062	      5.12942024	      0.01532738
      2.17100000	     18.70075802	    409.86807746	     22.84155743	     -2.31562768	      0.01017884	      2.32139823	      0.00454232	     -2.31666579	      0.00579309	     11.53955281	    464.49370175	    -34.92614540	     -2.31277716	      0.01047278	      2.68657637	     -0.00631232	      5.11459426	      0.01528307
      2.17200000	     18.63607280	    409.86805198	     22.90011622	     -2.31555969	      0.01017891	      2.32137238	      0.00451502	     -2.30274216	      0.00575828	     11.58531306	    464.23879223	    -35.00561583	     -2.31274992	      0.01047275	      2.68659703	     -0.00629375	      5.09954680	      0.01523811
      2.17300000	     18.55993696	    409.86933722	     22.95544823	     -2.31548927	      0.01017899	      2.32134710	      0.00448784	     -2.28887894	      0.00572361	     11.62694237	    463.96994321	    -35.08613221	     -2.31272203	      0.01047272	      2.68661867	     -0.00627492	      5.08429050	      0.01519252
      2.17400000	     18.47247321	    409.87155548	     23.00766254	     -2.31541669	      0.01017907	      2.32132243	      0.00446077	     -2.27507589	      0.00568909	     11.66387256	    463.68682475	    -35.16749309	     -2.31269346	      0.01047269	      2.68664121	     -0.00625585	      5.06883962	      0.01514635
      2.17500000	     18.37389963	    409.87425246	     23.05690493	     -2.31534224	      0.01017915	      2.32129840	      0.00443383	     -2.26133264	      0.00565473	     11.69560262	    463.38921441	    -35.24946832	     -2.31266417	      0.01047266	      2.68666456	     -0.00623656	      5.05320994	      0.01509965
      2.17600000	     18.26452845	    409.87690052	     23.10335595	     -2.31526624	      0.01017924	      2.32127502	      0.00440700	     -2.24764862	      0.00562051	     11.72170496	    463.07700044	    -35.33180014	     -2.31263417	      0.01047262	      2.68668860	     -0.00621707	      5.03741865	      0.01505246
      2.17700000	     18.14476398	    409.87890329	     23.14722843	     -2.31518901	      0.01017934	      2.32125232	      0.00438028	     -2.23402313	      0.00558644	     11.74183080	    462.75018320	    -35.41420453	     -2.31260350	      0.01047259	      2.68671318	     -0.00619740	      5.02148418	      0.01500485
      2.17800000	     18.01509942	    409.87960199	     23.18876452	     -2.31511091	      0.01017944	      2.32123029	      0.00435368	     -2.22045533	      0.00555251	     11.75571461	    462.40887474	    -35.49637289	     -2.31257221	      0.01047255	      2.68673817	     -0.00617759	      5.00542611	      0.01495686
      2.17900000	     17.87611277	    409.87828312	     23.22823236	     -2.31503229	      0.01017954	      2.32120893	      0.00432719	     -2.20694438	      0.00551872	     11.76317744	    462.05329649	    -35.57797404	     -2.31254037	      0.01047252	      2.68676338	     -0.00615764	      4.98926491	      0.01490857
      2.18000000	     17.72846163	    409.87418784	     23.26592237	     -2.31495352	      0.01017964	      2.32118824	      0.00430081	     -2.19348947	      0.00548508	     11.76412917	    461.68377522	    -35.65865646	     -2.31250808	      0.01047248	      2.68678864	     -0.00613759	      4.97302186	      0.01486004
      2.18100000	     17.57287702	    409.86652255	     23.30214320	     -2.31487494	      0.01017974	      2.32116819	      0.00427453	     -2.18009000	      0.00545157	     11.75856955	    461.30073722	    -35.73805094	     -2.31247546	      0.01047245	      2.68681376	     -0.00611747	      4.95671872	      0.01481132
